# xmcd CD database file
#
# Track frame offsets:
#	150
#	98577
#	152996
#	162557
#
# Disc length: 2443 seconds
#
# Revision: 1
# Processed by: cddbd v1.5.2PL0 Copyright (c) Steve Scherf et al.
# Submitted via: CDex 1.51
#
DISCID=29098904
DTITLE=Weather Report - Shinjuku Kouseinenkin Hall CD2
DYEAR=1978
DGENRE=Jazz
TTITLE0=Gibraltar
TTITLE1=Ponta De Areia - Sophisticated Lady
TTITLE2=Birdland
TTITLE3=Birdland
EXTD=YEAR: 1978
EXTT0=
EXTT1=
EXTT2=
EXTT3=
PLAYORDER=
